<svg width="252" height="252" viewBox="0 0 252 252" fill="none" xmlns="http://www.w3.org/2000/svg">
<path d="M3.00535 154.846L1 159.974L95.9198 251H101.936L228.273 128.564C228.273 128.564 230.748 107 232.283 95.2308C233.883 82.9683 236.294 67.0256 236.294 67.0256L194.182 26.641C194.182 26.641 189.288 26.4725 186.16 26.641C176.803 27.1451 169.324 29.5878 160.091 31.1282C146.656 33.3696 128.005 34.9744 128.005 34.9744L3.00535 154.846Z"
      fill="#fc0ac3" stroke="#fc0ac3"
/>
<path fill-rule="evenodd" clip-rule="evenodd" d="M196.856 81.7692C206.823 81.7692 214.904 74.0203 214.904 64.4615C214.904 54.9028 206.823 47.1538 196.856 47.1538C186.888 47.1538 178.807 54.9028 178.807 64.4615C178.807 74.0203 186.888 81.7692 196.856 81.7692ZM197 77C204.18 77 210 71.4036 210 64.5C210 57.5964 204.18 52 197 52C189.82 52 184 57.5964 184 64.5C184 71.4036 189.82 77 197 77Z" fill="#7A9191"/>
<path fill-rule="evenodd" clip-rule="evenodd" d="M205.218 45.6582C206.627 45.1915 208.039 44.7237 208.349 42.7499C208.973 38.7796 208.876 35.7433 208.785 32.9041C208.654 28.7916 208.535 25.0927 210.642 19.5679C210.821 19.0992 210.99 18.6478 211.154 18.2113C212.617 14.3162 213.635 11.6072 216.755 8.35074C223.738 1.06422 230.466 0.0867348 239.68 1.62046C243.778 2.30251 247.338 2.97293 249.615 5.35951C254.771 10.7639 244.259 23.3134 238.916 28.5416C235.015 32.3593 232.745 34.1905 230.524 35.9832C228.393 37.7019 226.307 39.3852 222.869 42.7499C220.576 44.9934 217.115 50.4578 216.755 52.4715C216.726 52.6321 216.699 52.7904 216.671 52.9464C216.213 55.5422 215.866 57.5104 213.699 59.2017C208.748 63.0636 200.393 53.9112 202.236 47.9846C202.7 46.4923 203.958 46.0757 205.218 45.6582ZM214.463 42.0021C215.991 42.7499 228.38 33.3136 235.095 25.5504C236.241 24.2257 237.684 22.8769 239.155 21.5028C243.586 17.3613 248.264 12.9892 245.794 8.35073C244.527 5.97243 242.529 5.79028 240.039 5.56336C239.437 5.50855 238.807 5.45113 238.152 5.35951C232.803 4.61169 228.903 5.64264 224.397 8.35074C218.797 11.7164 216.512 15.7006 214.463 21.8113C213.064 25.9826 212.86 28.6387 212.934 33.0284C212.939 33.2968 212.943 33.5721 212.947 33.8521C212.994 37.2404 213.051 41.3114 214.463 42.0021Z" fill="#798E8E"/>
<path d="M208.349 42.7499L208.843 42.8276L208.843 42.8276L208.349 42.7499ZM205.218 45.6582L205.061 45.1836L205.061 45.1836L205.218 45.6582ZM208.785 32.9041L208.286 32.9201L208.286 32.9201L208.785 32.9041ZM210.642 19.5679L210.175 19.3897L210.175 19.3897L210.642 19.5679ZM211.154 18.2113L211.622 18.3871L211.622 18.3871L211.154 18.2113ZM216.755 8.35074L217.116 8.69669L217.116 8.69669L216.755 8.35074ZM239.68 1.62046L239.598 2.11368L239.598 2.11368L239.68 1.62046ZM249.615 5.35951L249.977 5.01436L249.977 5.01436L249.615 5.35951ZM238.916 28.5416L238.567 28.1842L238.567 28.1842L238.916 28.5416ZM230.524 35.9832L230.21 35.594L230.21 35.594L230.524 35.9832ZM222.869 42.7499L223.218 43.1073L223.218 43.1073L222.869 42.7499ZM216.755 52.4715L216.263 52.3834L216.263 52.3834L216.755 52.4715ZM216.671 52.9464L217.163 53.0332L217.163 53.0332L216.671 52.9464ZM213.699 59.2017L214.006 59.596L214.006 59.596L213.699 59.2017ZM202.236 47.9846L202.713 48.1331L202.713 48.1331L202.236 47.9846ZM235.095 25.5504L234.717 25.2232L234.717 25.2232L235.095 25.5504ZM214.463 42.0021L214.682 41.553L214.682 41.553L214.463 42.0021ZM239.155 21.5028L239.496 21.8681L239.496 21.8681L239.155 21.5028ZM245.794 8.35073L245.353 8.58578L245.353 8.58578L245.794 8.35073ZM240.039 5.56336L240.084 5.06542L240.084 5.06542L240.039 5.56336ZM238.152 5.35951L238.083 5.8547L238.152 5.35951ZM224.397 8.35074L224.139 7.92217L224.139 7.92217L224.397 8.35074ZM214.463 21.8113L214.937 21.9703L214.937 21.9703L214.463 21.8113ZM212.934 33.0284L213.434 33.02L213.434 33.02L212.934 33.0284ZM212.947 33.8521L212.447 33.8591L212.447 33.8591L212.947 33.8521ZM207.855 42.6723C207.72 43.5309 207.359 44.0246 206.897 44.3679C206.406 44.7333 205.781 44.9448 205.061 45.1836L205.375 46.1329C206.063 45.905 206.85 45.6492 207.494 45.1706C208.168 44.6698 208.668 43.9427 208.843 42.8276L207.855 42.6723ZM208.286 32.9201C208.376 35.7563 208.472 38.752 207.855 42.6723L208.843 42.8276C209.475 38.8071 209.376 35.7302 209.285 32.8881L208.286 32.9201ZM210.175 19.3897C208.031 25.0108 208.153 28.7921 208.286 32.9201L209.285 32.8881C209.154 28.791 209.039 25.1745 211.109 19.746L210.175 19.3897ZM210.686 18.0355C210.522 18.4721 210.353 18.9224 210.175 19.3897L211.109 19.746C211.288 19.276 211.458 18.8234 211.622 18.3871L210.686 18.0355ZM216.394 8.0048C213.197 11.3409 212.151 14.1353 210.686 18.0355L211.622 18.3871C213.083 14.4972 214.072 11.8736 217.116 8.69669L216.394 8.0048ZM239.763 1.12725C235.123 0.355077 231.058 0.205453 227.255 1.19409C223.442 2.18516 219.937 4.30814 216.394 8.0048L217.116 8.69669C220.556 5.10682 223.906 3.09779 227.507 2.16193C231.116 1.22362 235.023 1.35212 239.598 2.11368L239.763 1.12725ZM249.977 5.01436C247.563 2.48514 243.819 1.80238 239.763 1.12725L239.598 2.11368C243.738 2.80264 247.112 3.46073 249.253 5.70466L249.977 5.01436ZM239.266 28.8989C241.954 26.2682 245.951 21.7895 248.633 17.2718C249.972 15.0155 251.004 12.7157 251.363 10.6105C251.723 8.49623 251.411 6.51744 249.977 5.01436L249.253 5.70466C250.397 6.90379 250.704 8.52033 250.377 10.4425C250.048 12.3737 249.085 14.5513 247.773 16.7614C245.152 21.1766 241.221 25.5867 238.567 28.1842L239.266 28.8989ZM230.837 36.3723C233.065 34.5747 235.349 32.7324 239.266 28.8989L238.567 28.1842C234.681 31.9863 232.425 33.8063 230.21 35.594L230.837 36.3723ZM223.218 43.1073C226.64 39.7587 228.713 38.0868 230.837 36.3723L230.21 35.594C228.074 37.317 225.974 39.0117 222.519 42.3926L223.218 43.1073ZM217.247 52.5595C217.324 52.1297 217.581 51.4636 217.988 50.6402C218.39 49.8287 218.919 48.902 219.51 47.9635C220.698 46.0791 222.112 44.1895 223.218 43.1073L222.519 42.3926C221.332 43.5538 219.87 45.5181 218.664 47.4302C218.059 48.39 217.512 49.3472 217.092 50.1967C216.677 51.0343 216.366 51.8064 216.263 52.3834L217.247 52.5595ZM217.163 53.0332C217.191 52.8771 217.219 52.7194 217.247 52.5595L216.263 52.3834C216.234 52.5448 216.206 52.7037 216.179 52.8596L217.163 53.0332ZM214.006 59.596C216.342 57.7737 216.708 55.6177 217.163 53.0332L216.179 52.8596C215.719 55.4668 215.391 57.2471 213.391 58.8075L214.006 59.596ZM201.758 47.8361C201.255 49.4542 201.458 51.2548 202.084 52.9536C202.712 54.6557 203.778 56.2934 205.061 57.6125C206.342 58.9289 207.866 59.9552 209.425 60.3931C210.998 60.835 212.62 60.6774 214.006 59.596L213.391 58.8075C212.302 59.657 211.024 59.8036 209.695 59.4303C208.352 59.0531 206.975 58.145 205.778 56.9152C204.584 55.6881 203.598 54.1679 203.022 52.6077C202.446 51.0443 202.295 49.4784 202.713 48.1331L201.758 47.8361ZM205.061 45.1836C203.836 45.5892 202.309 46.067 201.758 47.8361L202.713 48.1331C203.091 46.9175 204.079 46.5622 205.375 46.1329L205.061 45.1836ZM234.717 25.2232C231.387 29.073 226.637 33.351 222.525 36.5744C220.47 38.1858 218.585 39.5248 217.127 40.4115C216.396 40.8561 215.787 41.1779 215.325 41.3649C215.093 41.4587 214.916 41.5114 214.789 41.533C214.647 41.557 214.636 41.5305 214.682 41.553L214.243 42.4513C214.48 42.5672 214.745 42.5547 214.956 42.5189C215.182 42.4805 215.434 42.3996 215.7 42.2918C216.235 42.0755 216.897 41.7221 217.647 41.2659C219.151 40.3511 221.07 38.986 223.142 37.3614C227.286 34.1128 232.088 29.7909 235.474 25.8775L234.717 25.2232ZM238.813 21.1375C237.348 22.5069 235.884 23.8746 234.717 25.2232L235.474 25.8775C236.599 24.5768 238.021 23.247 239.496 21.8681L238.813 21.1375ZM245.353 8.58578C246.469 10.6829 246.004 12.7338 244.642 14.8419C243.268 16.9699 241.043 19.0542 238.813 21.1375L239.496 21.8681C241.698 19.8099 244.027 17.6374 245.483 15.3844C246.95 13.1114 247.589 10.657 246.235 8.11569L245.353 8.58578ZM239.993 6.06129C241.256 6.1764 242.304 6.27556 243.196 6.6172C244.055 6.94605 244.777 7.50493 245.353 8.58578L246.235 8.11569C245.544 6.81823 244.634 6.09688 243.554 5.68335C242.508 5.28261 241.311 5.17723 240.084 5.06542L239.993 6.06129ZM238.083 5.8547C238.752 5.94822 239.394 6.00662 239.993 6.06129L240.084 5.06542C239.481 5.01048 238.863 4.95403 238.221 4.86433L238.083 5.8547ZM224.655 8.7793C229.077 6.12155 232.863 5.12489 238.083 5.8547L238.221 4.86433C232.743 4.09849 228.729 5.16374 224.139 7.92217L224.655 8.7793ZM214.937 21.9703C215.955 18.9337 217.021 16.4619 218.508 14.3385C219.991 12.2214 221.908 10.4301 224.655 8.7793L224.139 7.92217C221.286 9.637 219.261 11.5207 217.689 13.7648C216.121 16.0025 215.02 18.5782 213.989 21.6523L214.937 21.9703ZM213.434 33.02C213.361 28.6658 213.561 26.0706 214.937 21.9703L213.989 21.6523C212.566 25.8947 212.359 28.6117 212.434 33.0369L213.434 33.02ZM213.447 33.8451C213.443 33.5653 213.439 33.2892 213.434 33.02L212.434 33.0369C212.439 33.3044 212.443 33.579 212.447 33.8591L213.447 33.8451ZM214.682 41.553C214.5 41.4638 214.293 41.2255 214.104 40.7342C213.92 40.2566 213.785 39.6223 213.689 38.8749C213.497 37.3813 213.47 35.5474 213.447 33.8451L212.447 33.8591C212.47 35.5451 212.496 37.4409 212.697 39.0026C212.798 39.7828 212.945 40.5075 213.17 41.0933C213.39 41.6655 213.719 42.1951 214.243 42.4513L214.682 41.553Z" fill="#7A9191"/>
<path d="M67.219 115.054L70.9772 111.425L81.9911 115.799L82.1382 115.657L77.5004 105.126L81.2585 101.497L93.8984 113.534L90.9433 116.388L83.1792 108.994L83.075 109.094L87.7425 119.325L85.8543 121.148L75.1108 116.702L75.0066 116.803L82.8139 124.238L79.8589 127.092L67.219 115.054ZM82.5261 100.273L85.9164 96.9988L93.8603 99.4723L93.9706 99.3658L91.336 91.7652L94.7264 88.4913L98.5527 100.943L102.774 104.963L99.7579 107.876L95.5364 103.855L82.5261 100.273ZM55.4816 190.911L42.8418 178.874L48.0284 173.865C48.9685 172.957 49.9649 172.35 51.0178 172.044C52.0706 171.729 53.1122 171.706 54.1424 171.974C55.1686 172.238 56.1158 172.783 56.9839 173.61C57.8562 174.44 58.4294 175.351 58.7035 176.341C58.9776 177.323 58.9441 178.322 58.6032 179.338C58.2622 180.354 57.6115 181.325 56.651 182.253L53.4508 185.343L51.0438 183.051L53.68 180.505C54.1378 180.063 54.4397 179.618 54.5858 179.169C54.7359 178.716 54.7467 178.276 54.6181 177.848C54.4853 177.415 54.2256 177.015 53.8388 176.647C53.4479 176.275 53.0308 176.03 52.5875 175.914C52.1401 175.794 51.6829 175.809 51.2159 175.96C50.749 176.111 50.2886 176.406 49.835 176.844L48.339 178.288L58.5163 187.98L55.4816 190.911ZM66.7439 180.035L54.104 167.998L59.2907 162.989C60.2307 162.082 61.2128 161.461 62.2369 161.127C63.2609 160.785 64.2757 160.736 65.2813 160.981C66.2827 161.221 67.2155 161.753 68.0795 162.575C68.9559 163.41 69.5106 164.303 69.7436 165.254C69.9724 166.201 69.8979 167.164 69.5199 168.145C69.1378 169.122 68.4685 170.072 67.5121 170.995L64.2322 174.163L61.8252 171.87L64.5411 169.248C64.9989 168.806 65.3214 168.38 65.5086 167.97C65.6958 167.553 65.7456 167.149 65.6582 166.76C65.5666 166.367 65.3253 165.985 64.9345 165.613C64.5436 165.24 64.1409 165.01 63.7264 164.921C63.3078 164.828 62.8794 164.871 62.4412 165.049C61.9989 165.224 61.5509 165.53 61.0972 165.968L59.6013 167.413L69.7786 177.105L66.7439 180.035ZM68.0359 167.708L76.9394 170.19L73.6288 173.387L64.7866 170.846L68.0359 167.708ZM83.7056 151.534C85.0964 152.859 86.0095 154.238 86.4451 155.672C86.8807 157.106 86.8958 158.5 86.4904 159.854C86.0891 161.204 85.3264 162.422 84.2025 163.508C83.0744 164.597 81.8057 165.337 80.3963 165.727C78.987 166.117 77.5352 166.111 76.0411 165.707C74.5469 165.295 73.1065 164.429 71.7199 163.108C70.3292 161.784 69.414 160.407 68.9744 158.977C68.5388 157.543 68.5216 156.151 68.9229 154.801C69.3242 153.45 70.0889 152.23 71.217 151.141C72.341 150.056 73.6056 149.316 75.0108 148.922C76.4202 148.524 77.8739 148.528 79.3722 148.936C80.8705 149.344 82.3149 150.21 83.7056 151.534ZM80.6035 154.53C79.7806 153.746 78.9687 153.197 78.1679 152.881C77.3712 152.561 76.6102 152.471 75.8848 152.611C75.1636 152.748 74.5005 153.108 73.8956 153.692C73.2947 154.272 72.9238 154.911 72.7827 155.607C72.6415 156.304 72.7384 157.035 73.0732 157.801C73.4122 158.562 73.9931 159.335 74.816 160.119C75.6389 160.902 76.4487 161.454 77.2454 161.774C78.0462 162.09 78.8092 162.177 79.5346 162.037C80.26 161.897 80.9231 161.537 81.5239 160.957C82.1288 160.373 82.4998 159.734 82.6368 159.041C82.7779 158.345 82.679 157.616 82.3401 156.854C82.0052 156.088 81.4264 155.314 80.6035 154.53ZM79.1575 143.805L82.9157 140.175L93.9296 144.55L94.0767 144.408L89.4389 133.876L93.197 130.247L105.837 142.284L102.882 145.138L95.1177 137.744L95.0135 137.845L99.681 148.075L97.7928 149.898L87.0493 145.453L86.9451 145.553L94.7524 152.988L91.7974 155.842L79.1575 143.805ZM113.261 122.994C114.651 124.318 115.565 125.697 116 127.131C116.436 128.565 116.451 129.959 116.045 131.314C115.644 132.664 114.881 133.882 113.757 134.967C112.629 136.056 111.361 136.796 109.951 137.187C108.542 137.577 107.09 137.57 105.596 137.166C104.102 136.755 102.662 135.889 101.275 134.568C99.8843 133.244 98.9691 131.866 98.5294 130.436C98.0938 129.003 98.0767 127.61 98.478 126.26C98.8793 124.91 99.644 123.69 100.772 122.601C101.896 121.515 103.161 120.776 104.566 120.381C105.975 119.983 107.429 119.988 108.927 120.396C110.425 120.803 111.87 121.669 113.261 122.994ZM110.158 125.99C109.336 125.206 108.524 124.656 107.723 124.34C106.926 124.021 106.165 123.931 105.44 124.071C104.719 124.207 104.055 124.567 103.451 125.152C102.85 125.732 102.479 126.37 102.338 127.067C102.197 127.763 102.293 128.494 102.628 129.26C102.967 130.022 103.548 130.795 104.371 131.578C105.194 132.362 106.004 132.914 106.8 133.233C107.601 133.549 108.364 133.637 109.09 133.497C109.815 133.357 110.478 132.996 111.079 132.416C111.684 131.832 112.055 131.194 112.192 130.501C112.333 129.805 112.234 129.075 111.895 128.314C111.56 127.548 110.981 126.773 110.158 125.99ZM110.21 118.577L107.729 116.214L118.341 105.966L120.822 108.329L117.015 112.006L127.174 121.68L124.182 124.569L114.023 114.895L110.21 118.577ZM122.858 101.605L135.498 113.642L132.463 116.572L119.823 104.535L122.858 101.605ZM142.934 94.3395C144.324 95.6639 145.238 97.043 145.673 98.4769C146.109 99.9109 146.124 101.305 145.718 102.659C145.317 104.009 144.555 105.227 143.431 106.313C142.302 107.402 141.034 108.142 139.624 108.532C138.215 108.922 136.763 108.916 135.269 108.512C133.775 108.1 132.335 107.234 130.948 105.914C129.557 104.589 128.642 103.212 128.202 101.782C127.767 100.348 127.75 98.9561 128.151 97.6058C128.552 96.2555 129.317 95.0357 130.445 93.9463C131.569 92.861 132.834 92.1211 134.239 91.7269C135.648 91.3288 137.102 91.3335 138.6 91.7413C140.099 92.149 141.543 93.0151 142.934 94.3395ZM139.832 97.3351C139.009 96.5515 138.197 96.0018 137.396 95.686C136.599 95.3663 135.838 95.2765 135.113 95.4167C134.392 95.5529 133.729 95.9131 133.124 96.4972C132.523 97.0774 132.152 97.7158 132.011 98.4124C131.87 99.1089 131.966 99.8401 132.301 100.606C132.64 101.368 133.221 102.14 134.044 102.924C134.867 103.708 135.677 104.259 136.473 104.579C137.274 104.895 138.037 104.983 138.763 104.842C139.488 104.702 140.151 104.342 140.752 103.762C141.357 103.178 141.728 102.539 141.865 101.847C142.006 101.15 141.907 100.421 141.568 99.6592C141.233 98.8935 140.654 98.1188 139.832 97.3351ZM149.072 76.2907L161.711 88.328L159.136 90.8145L146.845 88.6923L146.765 88.7693L154.06 95.7166L151.025 98.6471L138.386 86.6099L140.997 84.0878L153.221 86.2516L153.326 86.1509L146.043 79.2154L149.072 76.2907ZM161.556 71.5031C161.063 71.1115 160.529 70.9521 159.955 71.0249C159.381 71.0898 158.798 71.4084 158.205 71.9807C157.813 72.3596 157.537 72.7244 157.379 73.0749C157.22 73.4255 157.166 73.7501 157.216 74.0488C157.262 74.3436 157.398 74.6027 157.625 74.8261C157.806 75.0142 158.009 75.1374 158.235 75.1956C158.465 75.2499 158.715 75.2529 158.985 75.2048C159.256 75.1488 159.547 75.0495 159.858 74.9068C160.169 74.7641 160.498 74.5841 160.846 74.3666L162.172 73.5597C162.929 73.0891 163.658 72.7326 164.358 72.4903C165.063 72.244 165.733 72.1138 166.369 72.0998C167.008 72.0819 167.615 72.186 168.19 72.4121C168.765 72.6381 169.308 72.9902 169.818 73.4682C170.612 74.2323 171.097 75.0781 171.272 76.0056C171.448 76.9331 171.316 77.901 170.877 78.9093C170.441 79.9137 169.7 80.921 168.654 81.9314C167.604 82.9458 166.53 83.679 165.432 84.1312C164.335 84.5833 163.246 84.711 162.167 84.5142C161.088 84.3174 160.048 83.7547 159.049 82.8261L161.955 80.0199C162.387 80.3841 162.834 80.6028 163.298 80.6759C163.762 80.749 164.231 80.6903 164.706 80.4999C165.185 80.3055 165.648 79.9933 166.093 79.563C166.502 79.1684 166.794 78.78 166.969 78.3979C167.148 78.0119 167.216 77.6498 167.174 77.3118C167.132 76.9737 166.985 76.6812 166.734 76.4343C166.491 76.211 166.214 76.0881 165.902 76.0656C165.587 76.0392 165.218 76.1112 164.796 76.2818C164.374 76.4445 163.881 76.6959 163.316 77.0361L161.696 78.0092C160.357 78.82 159.096 79.261 157.911 79.3319C156.722 79.399 155.65 78.974 154.695 78.0571C153.91 77.3166 153.433 76.4629 153.266 75.496C153.098 74.5292 153.222 73.5298 153.637 72.498C154.051 71.4662 154.735 70.4905 155.687 69.5709C156.66 68.6315 157.67 67.9752 158.719 67.6019C159.768 67.2207 160.788 67.1228 161.781 67.3081C162.774 67.4934 163.668 67.9563 164.462 68.6968L161.556 71.5031Z" fill="white"/>
<g clip-path="url(#clip0_107_71)">
<g filter="url(#filter0_d_107_71)">
<path d="M162.212 156.344L164.918 151.859C165.243 151.32 165.332 150.678 165.164 150.076C164.996 149.474 164.586 148.961 164.023 148.649L159.342 146.054V140.883C159.342 140.259 159.084 139.662 158.624 139.221C158.164 138.78 157.541 138.532 156.891 138.532H151.501L148.798 134.045C148.471 133.507 147.937 133.113 147.31 132.95C146.999 132.869 146.675 132.848 146.355 132.889C146.036 132.929 145.728 133.03 145.45 133.185L140.768 135.78L136.087 133.183C135.524 132.871 134.855 132.787 134.227 132.948C133.599 133.109 133.064 133.503 132.739 134.043L130.033 138.532H124.643C123.993 138.532 123.37 138.78 122.91 139.221C122.451 139.662 122.192 140.259 122.192 140.883V146.051L117.511 148.646C117.232 148.8 116.987 149.006 116.791 149.251C116.594 149.496 116.45 149.776 116.367 150.074C116.284 150.373 116.263 150.684 116.306 150.991C116.349 151.297 116.454 151.592 116.616 151.859L119.322 156.344L116.616 160.829C116.293 161.369 116.205 162.009 116.372 162.611C116.539 163.213 116.948 163.727 117.509 164.042L122.19 166.636V171.805C122.19 172.428 122.448 173.026 122.908 173.467C123.367 173.908 123.991 174.155 124.641 174.155H130.033L132.739 178.645C132.956 179 133.266 179.296 133.638 179.502C134.01 179.708 134.432 179.818 134.862 179.82C135.288 179.82 135.712 179.712 136.089 179.503L140.766 176.908L145.447 179.503C146.01 179.814 146.679 179.898 147.306 179.738C147.934 179.577 148.469 179.184 148.795 178.645L151.499 174.155H156.888C157.539 174.155 158.162 173.908 158.622 173.467C159.081 173.026 159.339 172.428 159.339 171.805V166.636L164.021 164.042C164.3 163.887 164.544 163.681 164.74 163.436C164.936 163.191 165.079 162.911 165.163 162.613C165.246 162.314 165.267 162.003 165.224 161.697C165.182 161.391 165.077 161.096 164.915 160.829L162.212 156.344ZM134.638 144.568C135.614 144.569 136.549 144.94 137.239 145.602C137.928 146.264 138.315 147.161 138.315 148.096C138.315 149.032 137.927 149.929 137.237 150.59C136.547 151.251 135.611 151.622 134.636 151.622C133.661 151.622 132.725 151.25 132.036 150.588C131.346 149.926 130.959 149.029 130.96 148.094C130.96 147.159 131.348 146.262 132.038 145.6C132.728 144.939 133.663 144.568 134.638 144.568ZM135.374 167.132L131.452 164.314L146.158 145.511L150.08 148.329L135.374 167.132ZM146.893 168.073C146.41 168.072 145.932 167.981 145.486 167.804C145.04 167.626 144.635 167.366 144.293 167.039C143.952 166.711 143.681 166.322 143.496 165.894C143.312 165.466 143.217 165.008 143.217 164.545C143.217 164.081 143.312 163.623 143.497 163.195C143.682 162.767 143.953 162.378 144.295 162.051C144.637 161.724 145.042 161.464 145.488 161.287C145.935 161.11 146.413 161.019 146.896 161.019C147.871 161.019 148.807 161.391 149.496 162.053C150.185 162.714 150.573 163.612 150.572 164.547C150.572 165.482 150.184 166.379 149.494 167.04C148.804 167.702 147.869 168.073 146.893 168.073Z" fill="white"/>
</g>
</g>
<defs>
<filter id="filter0_d_107_71" x="112.285" y="132.868" width="56.9623" height="54.9521" filterUnits="userSpaceOnUse" color-interpolation-filters="sRGB">
<feFlood flood-opacity="0" result="BackgroundImageFix"/>
<feColorMatrix in="SourceAlpha" type="matrix" values="0 0 0 0 0 0 0 0 0 0 0 0 0 0 0 0 0 0 127 0" result="hardAlpha"/>
<feOffset dy="4"/>
<feGaussianBlur stdDeviation="2"/>
<feComposite in2="hardAlpha" operator="out"/>
<feColorMatrix type="matrix" values="0 0 0 0 0 0 0 0 0 0 0 0 0 0 0 0 0 0 0.25 0"/>
<feBlend mode="normal" in2="BackgroundImageFix" result="effect1_dropShadow_107_71"/>
<feBlend mode="normal" in="SourceGraphic" in2="effect1_dropShadow_107_71" result="shape"/>
</filter>
<clipPath id="clip0_107_71">
<rect width="58.8235" height="56.4103" fill="white" transform="translate(113 128)"/>
</clipPath>
</defs>
</svg>
