<svg width="500" height="53" viewBox="0 0 500 53" fill="none" xmlns="http://www.w3.org/2000/svg">
    <path d="M495 0H6.10352e-05V59C6.10352e-05 59 11.6918 42.2885 54.5 41.5C100.525 40.6522 171.967 19.5 218 19.5C257.5 19.5 329.036 29.6378 372.5 19.5C435.899 4.71257 495 0 495 0Z" fill="#3F3D56"/>
    <path d="M495 0H0V58C0 58 31.6918 32.7885 74.5 32C120.525 31.1522 140.967 45.5 187 45.5C226.5 45.5 303.536 28.1378 347 18C410.399 3.21257 495 0 495 0Z" fill="white" fill-opacity="0.5"/>
    <path d="M495 0H0V58C0 58 37.1918 25.2885 80 24.5C126.025 23.6522 166.967 36.5 213 36.5C252.5 36.5 295.536 25.1378 339 15C402.399 0.212575 495 0 495 0Z" fill="white"/>
</svg>