<svg width="197" height="197" viewBox="0 0 197 197" fill="none" xmlns="http://www.w3.org/2000/svg">
    <circle cx="93.5" cy="98.5" r="63.5" fill="#3F3D56"/>
    <g filter="url(#filter0_d_8_82)">
        <path d="M164.811 98.9846L173.873 83.3231C174.962 81.4388 175.258 79.1991 174.696 77.0965C174.135 74.9939 172.761 73.2004 170.877 72.1105L155.199 63.0485V44.9902C155.199 42.8132 154.334 40.7254 152.795 39.186C151.255 37.6467 149.168 36.7819 146.991 36.7819H128.941L119.887 21.1122C118.793 19.2318 117.003 17.8576 114.904 17.2871C113.863 17.0048 112.776 16.9321 111.707 17.073C110.637 17.2139 109.607 17.5656 108.674 18.1079L92.9962 27.1699L77.3183 18.0997C75.433 17.0112 73.1926 16.7163 71.0899 17.2797C68.9871 17.8431 67.1943 19.2187 66.1057 21.1039L57.0437 36.7819H38.9936C36.8166 36.7819 34.7288 37.6467 33.1895 39.186C31.6501 40.7254 30.7853 42.8132 30.7853 44.9902V63.0403L15.1074 72.1023C14.1719 72.6404 13.3519 73.3581 12.6947 74.214C12.0374 75.07 11.5557 76.0474 11.2773 77.09C10.9989 78.1327 10.9292 79.2201 11.0724 80.2898C11.2155 81.3595 11.5686 82.3903 12.1113 83.3231L21.1733 98.9846L12.1113 114.646C11.0277 116.532 10.7337 118.77 11.2934 120.872C11.8531 122.974 13.2211 124.769 15.0992 125.867L30.7771 134.929V152.979C30.7771 155.156 31.6419 157.244 33.1812 158.783C34.7206 160.323 36.8084 161.187 38.9854 161.187H57.0437L66.1057 176.865C66.8324 178.108 67.87 179.139 69.1164 179.859C70.3628 180.578 71.775 180.961 73.2142 180.969C74.6424 180.969 76.0624 180.592 77.3265 179.861L92.988 170.799L108.666 179.861C110.551 180.948 112.79 181.243 114.892 180.682C116.994 180.12 118.787 178.747 119.879 176.865L128.932 161.187H146.982C149.159 161.187 151.247 160.323 152.787 158.783C154.326 157.244 155.191 155.156 155.191 152.979V134.929L170.869 125.867C171.803 125.327 172.621 124.609 173.277 123.753C173.933 122.897 174.414 121.92 174.692 120.877C174.97 119.835 175.041 118.749 174.899 117.679C174.757 116.61 174.405 115.579 173.865 114.646L164.811 98.9846ZM72.4672 57.8609C75.7338 57.862 78.8661 59.1606 81.1751 61.4712C83.4842 63.7818 84.7808 66.915 84.7797 70.1816C84.7786 73.4481 83.4799 76.5805 81.1693 78.8895C78.8588 81.1986 75.7256 82.4952 72.459 82.4941C69.1924 82.493 66.0601 81.1943 63.751 78.8837C61.442 76.5731 60.1454 73.4399 60.1465 70.1734C60.1476 66.9068 61.4463 63.7745 63.7568 61.4654C66.0674 59.1564 69.2006 57.8598 72.4672 57.8609ZM74.9297 136.661L61.7964 126.819L111.046 61.1524L124.18 70.9942L74.9297 136.661ZM113.509 139.944C111.891 139.944 110.29 139.625 108.796 139.005C107.302 138.386 105.944 137.478 104.801 136.334C103.658 135.19 102.751 133.832 102.132 132.337C101.514 130.843 101.196 129.241 101.196 127.623C101.197 126.006 101.516 124.405 102.135 122.91C102.755 121.416 103.663 120.059 104.807 118.916C105.951 117.772 107.309 116.865 108.803 116.247C110.298 115.628 111.9 115.31 113.517 115.311C116.784 115.312 119.916 116.611 122.225 118.921C124.534 121.232 125.831 124.365 125.83 127.632C125.828 130.898 124.53 134.031 122.219 136.34C119.909 138.649 116.775 139.945 113.509 139.944Z" fill="white"/>
    </g>
    <defs>
        <filter id="filter0_d_8_82" x="7" y="17" width="171.975" height="171.969" filterUnits="userSpaceOnUse" color-interpolation-filters="sRGB">
            <feFlood flood-opacity="0" result="BackgroundImageFix"/>
            <feColorMatrix in="SourceAlpha" type="matrix" values="0 0 0 0 0 0 0 0 0 0 0 0 0 0 0 0 0 0 127 0" result="hardAlpha"/>
            <feOffset dy="4"/>
            <feGaussianBlur stdDeviation="2"/>
            <feComposite in2="hardAlpha" operator="out"/>
            <feColorMatrix type="matrix" values="0 0 0 0 0 0 0 0 0 0 0 0 0 0 0 0 0 0 0.25 0"/>
            <feBlend mode="normal" in2="BackgroundImageFix" result="effect1_dropShadow_8_82"/>
            <feBlend mode="normal" in="SourceGraphic" in2="effect1_dropShadow_8_82" result="shape"/>
        </filter>
    </defs>
</svg>