
<svg width="377" height="191" viewBox="0 0 377 191" fill="none" xmlns="http://www.w3.org/2000/svg">
    <g clip-path="url(#clip0_1_3)">
        <path d="M361.387 183.31C350.414 191.195 336.193 191.591 322.448 190.623C320.528 190.488 318.622 190.329 316.734 190.158C316.723 190.155 316.708 190.156 316.696 190.153C316.606 190.145 316.515 190.136 316.428 190.131C316.038 190.094 315.648 190.058 315.262 190.021L315.353 190.195L315.64 190.734C315.537 190.553 315.434 190.377 315.331 190.197C315.301 190.142 315.267 190.089 315.237 190.034C311.676 183.853 308.144 177.445 307.243 170.387C306.312 163.061 308.929 154.765 315.393 151.164C316.241 150.693 317.138 150.318 318.069 150.046C318.456 149.929 318.848 149.834 319.244 149.75C321.668 149.213 324.192 149.33 326.556 150.088C328.92 150.847 331.039 152.22 332.695 154.066C334.35 155.912 335.483 158.165 335.977 160.592C336.47 163.02 336.307 165.535 335.503 167.879C340.983 162.273 339.961 153.18 338.07 145.58C336.176 137.98 333.883 129.523 337.736 122.697C339.877 118.898 343.643 116.541 347.869 115.591C347.999 115.563 348.128 115.535 348.258 115.511C353.294 114.494 358.529 115.409 362.917 118.073C370.998 123.153 375.149 132.784 376.496 142.218C378.666 157.4 373.863 174.344 361.387 183.31Z" fill="url(#paint0_linear_1_3)"/>
        <path d="M357.844 158.973C357.526 162.322 356.719 165.606 355.451 168.723C354.281 171.481 352.705 174.049 350.774 176.342C346.83 181.074 341.615 184.632 335.952 187.003C331.621 188.772 327.084 189.988 322.448 190.623C320.528 190.488 318.622 190.329 316.734 190.158C316.723 190.155 316.708 190.156 316.696 190.153C316.606 190.145 316.515 190.136 316.428 190.131C316.038 190.094 315.648 190.058 315.262 190.021L315.353 190.195L315.64 190.734C315.537 190.553 315.434 190.377 315.331 190.197C315.301 190.143 315.267 190.089 315.237 190.034C318.713 186.58 321.308 182.345 322.805 177.684C324.302 173.023 324.657 168.072 323.841 163.246C322.986 158.454 321.009 153.931 318.07 150.046C318.456 149.929 318.848 149.834 319.244 149.75C320.361 151.273 321.341 152.892 322.173 154.588C325.155 160.635 326.107 167.479 324.886 174.108C323.752 180.106 320.925 185.657 316.738 190.109C317.105 190.083 317.475 190.053 317.837 190.02C324.699 189.441 331.546 187.969 337.77 184.955C343.089 182.442 347.708 178.661 351.218 173.948C354.987 168.763 356.648 162.526 356.933 156.187C357.236 149.4 356.353 142.494 354.8 135.895C353.215 129.129 350.805 122.581 347.626 116.399C347.555 116.259 347.54 116.097 347.586 115.947C347.631 115.796 347.733 115.669 347.869 115.591C347.983 115.514 348.123 115.486 348.258 115.511C348.325 115.529 348.386 115.561 348.438 115.605C348.49 115.649 348.531 115.705 348.559 115.767C348.951 116.531 349.336 117.295 349.706 118.068C352.79 124.505 355.061 131.299 356.466 138.294C357.83 145.042 358.558 152.101 357.844 158.973Z" fill="white"/>
        <path d="M214.565 186.794C220.17 190.822 227.434 191.025 234.456 190.53C235.436 190.461 236.41 190.38 237.374 190.292C237.38 190.291 237.388 190.291 237.394 190.29C237.44 190.285 237.486 190.281 237.531 190.278C237.73 190.26 237.929 190.241 238.126 190.223L238.08 190.311L237.933 190.586C237.986 190.494 238.038 190.404 238.091 190.312C238.106 190.284 238.124 190.257 238.139 190.229C239.958 187.072 241.762 183.798 242.222 180.193C242.698 176.45 241.361 172.213 238.059 170.374C237.626 170.133 237.168 169.941 236.692 169.802C236.495 169.742 236.295 169.694 236.092 169.651C234.854 169.377 233.565 169.436 232.357 169.824C231.149 170.211 230.067 170.913 229.221 171.856C228.376 172.799 227.797 173.95 227.545 175.19C227.293 176.43 227.376 177.714 227.787 178.912C224.987 176.048 225.51 171.403 226.475 167.521C227.443 163.639 228.614 159.319 226.646 155.832C226.089 154.897 225.34 154.09 224.448 153.464C223.555 152.839 222.541 152.408 221.47 152.202C221.404 152.188 221.337 152.173 221.271 152.161C218.699 151.641 216.025 152.109 213.783 153.47C209.655 156.065 207.535 160.985 206.847 165.804C205.738 173.559 208.192 182.214 214.565 186.794Z" fill="url(#paint1_linear_1_3)"/>
        <path d="M216.374 174.362C216.537 176.073 216.949 177.751 217.597 179.343C218.194 180.752 219 182.063 219.986 183.235C222.036 185.629 224.633 187.496 227.557 188.681C229.77 189.585 232.087 190.206 234.456 190.53C235.436 190.461 236.41 190.38 237.374 190.292C237.38 190.291 237.388 190.291 237.394 190.29C237.44 190.285 237.486 190.281 237.531 190.278C237.73 190.26 237.929 190.241 238.126 190.223L238.08 190.311L237.933 190.586C237.986 190.494 238.038 190.404 238.091 190.312C238.106 190.284 238.124 190.257 238.139 190.229C236.364 188.465 235.038 186.301 234.273 183.92C233.509 181.539 233.327 179.01 233.744 176.545C234.18 174.097 235.191 171.787 236.692 169.802C236.495 169.743 236.295 169.694 236.092 169.651C235.521 170.429 235.021 171.256 234.596 172.122C233.073 175.211 232.587 178.708 233.21 182.094C233.79 185.158 235.233 187.993 237.372 190.267C237.185 190.254 236.996 190.239 236.811 190.222C233.286 189.99 229.835 189.113 226.629 187.635C223.912 186.351 221.552 184.42 219.759 182.012C217.834 179.363 216.985 176.177 216.84 172.939C216.728 169.451 217.094 165.963 217.929 162.574C218.739 159.117 219.97 155.773 221.594 152.615C221.631 152.543 221.638 152.461 221.615 152.384C221.592 152.307 221.54 152.242 221.47 152.202C221.412 152.163 221.34 152.148 221.271 152.161C221.237 152.17 221.206 152.187 221.179 152.209C221.153 152.232 221.132 152.26 221.118 152.292C220.917 152.682 220.721 153.073 220.532 153.467C218.956 156.755 217.796 160.226 217.078 163.799C216.315 167.265 216.077 170.826 216.374 174.362Z" fill="white"/>
        <g filter="url(#filter0_d_1_3)">
            <rect y="5" width="72" height="105" rx="6" fill="#E65C00"/>
            <rect x="0.5" y="5.5" width="71" height="104" rx="5.5" stroke="black"/>
        </g>
        <g filter="url(#filter1_d_1_3)">
            <rect x="125" y="5" width="72" height="105" rx="6" fill="#FDFC47"/>
            <rect x="125.5" y="5.5" width="71" height="104" rx="5.5" stroke="black"/>
        </g>
        <g filter="url(#filter2_d_1_3)">
            <rect x="245.301" y="10.8562" width="72" height="105" rx="6" transform="rotate(-9.80907 245.301 10.8562)" fill="url(#paint2_linear_1_3)"/>
            <rect x="245.879" y="11.2637" width="71" height="104" rx="5.5" transform="rotate(-9.80907 245.879 11.2637)" stroke="black"/>
        </g>
        <rect x="268.574" y="32.4128" width="34.5941" height="9.48183" rx="4.5" transform="rotate(-9.28063 268.574 32.4128)" stroke="#CCCCCC"/>
        <rect x="271.574" y="50.1531" width="34.5941" height="9.48183" rx="4.5" transform="rotate(-9.28063 271.574 50.1531)" stroke="#CCCCCC"/>
        <rect x="274.574" y="68.1531" width="34.5941" height="9.48183" rx="4.5" transform="rotate(-9.28063 274.574 68.1531)" stroke="#CCCCCC"/>
        <rect x="277.574" y="86.1531" width="34.5941" height="9.48183" rx="4.5" transform="rotate(-9.28063 277.574 86.1531)" stroke="#CCCCCC"/>
        <path d="M318.222 10.9275L248.12 22.533C248.069 22.5417 248.016 22.5402 247.965 22.5286C247.914 22.5169 247.866 22.4953 247.823 22.4651C247.781 22.4348 247.745 22.3965 247.717 22.3523C247.689 22.3081 247.671 22.2589 247.662 22.2074C247.654 22.156 247.655 22.1034 247.667 22.0527C247.679 22.0019 247.701 21.954 247.731 21.9117C247.762 21.8693 247.8 21.8334 247.845 21.806C247.889 21.7785 247.939 21.7601 247.99 21.7517L318.092 10.1462C318.144 10.1374 318.196 10.139 318.247 10.1506C318.298 10.1623 318.346 10.1839 318.389 10.2141C318.431 10.2444 318.468 10.2827 318.495 10.3269C318.523 10.3711 318.542 10.4203 318.55 10.4717C318.559 10.5232 318.557 10.5758 318.545 10.6265C318.533 10.6773 318.511 10.7252 318.481 10.7675C318.451 10.8099 318.412 10.8458 318.368 10.8732C318.323 10.9007 318.274 10.9191 318.222 10.9275V10.9275Z" fill="#3F3D56"/>
        <path d="M255.736 17.8651C257.27 17.8651 258.514 16.624 258.514 15.0931C258.514 13.5621 257.27 12.3211 255.736 12.3211C254.201 12.3211 252.957 13.5621 252.957 15.0931C252.957 16.624 254.201 17.8651 255.736 17.8651Z" fill="white"/>
        <path d="M311.087 4.32377L303.255 5.62049C303.151 5.63729 303.045 5.61241 302.959 5.55129C302.874 5.49018 302.816 5.39782 302.799 5.29444C302.782 5.19107 302.807 5.08511 302.868 4.99977C302.929 4.91444 303.021 4.85669 303.125 4.83918L310.957 3.54246C311.061 3.52563 311.167 3.5505 311.252 3.61161C311.338 3.67272 311.395 3.76509 311.413 3.86849C311.43 3.97188 311.405 4.07786 311.344 4.1632C311.283 4.24854 311.191 4.30628 311.087 4.32377V4.32377Z" fill="#3F3D56"/>
        <path d="M311.477 6.66771L303.645 7.96443C303.541 7.98123 303.435 7.95635 303.349 7.89523C303.264 7.83412 303.206 7.74175 303.189 7.63838C303.172 7.535 303.197 7.42905 303.258 7.34371C303.319 7.25838 303.411 7.20063 303.515 7.18311L311.347 5.8864C311.451 5.8696 311.557 5.89448 311.642 5.9556C311.728 6.01671 311.785 6.10907 311.802 6.21244C311.82 6.31582 311.795 6.42178 311.734 6.50711C311.673 6.59245 311.581 6.6502 311.477 6.66771V6.66771Z" fill="#3F3D56"/>
        <path d="M311.867 9.01164L304.034 10.3084C303.983 10.3171 303.93 10.3155 303.879 10.3039C303.828 10.2922 303.78 10.2706 303.738 10.2404C303.695 10.2101 303.659 10.1718 303.631 10.1276C303.604 10.0834 303.585 10.0342 303.577 9.98275C303.568 9.93134 303.57 9.87876 303.582 9.82801C303.593 9.77726 303.615 9.72935 303.646 9.68701C303.676 9.64468 303.715 9.60875 303.759 9.5813C303.804 9.55386 303.853 9.53542 303.904 9.52705L311.737 8.23034C311.789 8.22163 311.841 8.22315 311.892 8.23481C311.943 8.24647 311.991 8.26804 312.034 8.29829C312.076 8.32854 312.113 8.36687 312.14 8.41108C312.168 8.45529 312.187 8.50452 312.195 8.55593C312.204 8.60735 312.202 8.65994 312.19 8.7107C312.178 8.76145 312.156 8.80937 312.126 8.85171C312.095 8.89405 312.057 8.92997 312.013 8.95742C311.968 8.98486 311.919 9.00329 311.867 9.01164Z" fill="#3F3D56"/>
        <path d="M325.154 104.707C325.338 104.113 325.389 103.486 325.304 102.87C325.218 102.254 324.998 101.664 324.66 101.142C324.321 100.62 323.871 100.178 323.343 99.848C322.815 99.5178 322.22 99.3073 321.601 99.2311L301.223 75.4778L296.47 80.4559L316.768 103.231C316.709 104.277 317.036 105.307 317.688 106.128C318.339 106.949 319.27 107.503 320.304 107.685C321.338 107.867 322.402 107.664 323.296 107.116C324.19 106.567 324.851 105.71 325.154 104.707V104.707Z" fill="#DAAF92"/>
        <path d="M307.126 80.4818L299.841 85.7924C299.634 85.9435 299.397 86.0483 299.145 86.0996C298.894 86.1508 298.634 86.1475 298.384 86.0896C298.134 86.0318 297.899 85.9209 297.696 85.7645C297.493 85.608 297.326 85.4097 297.206 85.1831L293.02 77.241C292.251 76.1789 291.936 74.8558 292.143 73.5621C292.351 72.2683 293.064 71.1094 294.127 70.3394C295.189 69.5694 296.515 69.2512 297.812 69.4545C299.11 69.6579 300.274 70.3662 301.048 71.4242L307.344 77.7922C307.524 77.9746 307.663 78.1936 307.751 78.4343C307.838 78.6749 307.873 78.9316 307.852 79.1869C307.832 79.4421 307.756 79.6899 307.631 79.9134C307.505 80.1368 307.333 80.3307 307.126 80.4818V80.4818Z" fill="white"/>
        <path d="M293.069 64.6122C298.455 64.6122 302.82 60.2577 302.82 54.8861C302.82 49.5144 298.455 45.1599 293.069 45.1599C287.684 45.1599 283.319 49.5144 283.319 54.8861C283.319 60.2577 287.684 64.6122 293.069 64.6122Z" fill="#DAAF92"/>
        <path d="M297.305 98.7661C297.204 98.7662 297.103 98.7578 297.003 98.741L279.895 95.8684C279.483 95.8 279.108 95.5893 278.835 95.2732C278.563 94.9572 278.411 94.5557 278.405 94.139C278.353 90.2347 278.646 80.3788 282.48 73.2001C283.68 70.9563 285.655 69.2233 288.039 68.3236C290.424 67.4238 293.054 67.4185 295.442 68.3087C297.83 69.1988 299.812 70.9239 301.021 73.1629C302.229 75.4019 302.581 78.0025 302.011 80.4809C300.727 85.9952 299.746 91.5752 299.072 97.1961C299.021 97.6279 298.812 98.026 298.487 98.3152C298.161 98.6044 297.741 98.7648 297.305 98.7661L297.305 98.7661Z" fill="#2F2E41"/>
        <path d="M261.436 66.7411C261.484 66.9548 261.516 67.1719 261.531 67.3906L278.584 77.2043L282.729 74.8239L287.148 80.5946L280.221 85.5198C279.661 85.9177 278.987 86.1238 278.3 86.1071C277.613 86.0904 276.95 85.8518 276.41 85.4272L258.825 71.5887C258.031 71.8817 257.167 71.9268 256.347 71.7179C255.527 71.509 254.791 71.0561 254.235 70.4194C253.68 69.7826 253.331 68.9922 253.237 68.1534C253.143 67.3145 253.307 66.4669 253.707 65.7232C254.108 64.9796 254.726 64.3752 255.479 63.9904C256.232 63.6057 257.085 63.4588 257.924 63.5693C258.763 63.6797 259.548 64.0424 260.176 64.609C260.803 65.1756 261.242 65.9193 261.436 66.7411V66.7411Z" fill="#DAAF92"/>
        <path d="M278.818 76.2233C278.87 75.9724 278.975 75.7355 279.126 75.5288C279.278 75.3221 279.472 75.1504 279.696 75.0254L287.522 70.6604C288.562 69.86 289.877 69.5035 291.18 69.6691C292.483 69.8347 293.667 70.5088 294.472 71.5437C295.278 72.5786 295.639 73.8898 295.477 75.1899C295.314 76.4899 294.642 77.6728 293.607 78.4791L287.367 84.9423C287.189 85.1267 286.973 85.2707 286.734 85.3645C286.495 85.4582 286.239 85.4995 285.983 85.4854C285.726 85.4714 285.476 85.4025 285.249 85.2833C285.022 85.1641 284.823 84.9974 284.666 84.7947L279.154 77.6691C278.997 77.4664 278.886 77.2323 278.828 76.9828C278.77 76.7333 278.767 76.4742 278.818 76.2233Z" fill="white"/>
        <path d="M270.562 185.997H265.695L264.549 167.331L270.563 167.271L270.562 185.997Z" fill="#DAAF92"/>
        <path d="M271.803 190.703L256.11 190.703V190.505C256.11 189.704 256.268 188.912 256.575 188.173C256.882 187.434 257.332 186.762 257.899 186.196C258.466 185.63 259.139 185.181 259.881 184.875C260.622 184.569 261.416 184.412 262.218 184.412H262.218L271.803 184.412L271.803 190.703Z" fill="#2F2E41"/>
        <path d="M317.009 185.997H312.142L309.827 167.271H317.01L317.009 185.997Z" fill="#DAAF92"/>
        <path d="M318.251 190.703L302.557 190.703V190.505C302.557 189.704 302.715 188.912 303.022 188.173C303.329 187.434 303.779 186.762 304.346 186.196C304.914 185.63 305.587 185.181 306.328 184.875C307.069 184.569 307.863 184.412 308.666 184.412H308.666L318.251 184.412L318.251 190.703Z" fill="#2F2E41"/>
        <path d="M311.476 176.286C311.106 176.285 310.745 176.17 310.442 175.957C310.14 175.743 309.911 175.441 309.788 175.093L294.278 130.889C294.218 130.719 294.114 130.569 293.975 130.454C293.837 130.34 293.67 130.265 293.492 130.237C293.315 130.21 293.133 130.231 292.966 130.299C292.8 130.367 292.655 130.478 292.547 130.622L277.417 150.744C277.3 150.901 277.216 151.081 277.173 151.273L272.352 172.728C272.266 173.109 272.057 173.451 271.756 173.703C271.456 173.954 271.082 174.1 270.69 174.118L264.916 174.38C264.667 174.392 264.418 174.352 264.186 174.262C263.953 174.172 263.743 174.033 263.568 173.856C263.393 173.68 263.256 173.469 263.167 173.237C263.078 173.005 263.038 172.757 263.051 172.509L264.058 152.926C264.375 146.591 266.012 140.391 268.863 134.721C275.2 122.114 278.867 108.341 279.635 94.2585L279.647 94.0393L297.413 96.8588L300.08 100.542C301.27 102.204 302.559 103.793 303.941 105.301C307.337 108.974 308.357 113.887 308.614 117.361C308.946 121.631 309.552 125.876 310.428 130.068L319.239 173.257C319.305 173.502 319.318 173.758 319.276 174.009C319.235 174.259 319.14 174.498 318.999 174.709C318.857 174.92 318.672 175.099 318.456 175.233C318.24 175.367 317.997 175.453 317.745 175.486L311.705 176.272C311.629 176.281 311.553 176.286 311.476 176.286Z" fill="#2F2E41"/>
        <path d="M303.851 48.1353C303.076 45.7933 302.504 43.3893 302.142 40.9498C302.028 39.5295 302.393 38.0013 303.429 37.0214C305.37 35.1875 308.667 36.0609 310.696 37.7965C313.629 40.3049 315.092 44.1598 315.645 47.9738C316.197 51.7878 315.954 55.6662 316.087 59.5176C316.22 63.369 316.772 67.3291 318.741 70.645C320.709 73.9609 324.362 76.5062 328.215 76.224C329.77 76.1402 331.247 75.5159 332.389 74.4596C332.949 73.9276 333.374 73.2693 333.627 72.54C333.88 71.8106 333.954 71.0313 333.842 70.2675C335.811 73.785 334.813 78.5522 331.876 81.3174C328.939 84.0825 324.42 84.8642 320.559 83.6836C316.697 82.503 313.519 79.5428 311.621 75.9867C309.722 72.4307 309.027 68.3229 309.128 64.2954C309.205 61.2025 309.732 58.0844 309.208 55.0351C308.684 51.9857 306.771 48.8896 303.754 48.1715L303.851 48.1353Z" fill="#2F2E41"/>
        <path d="M290.303 52.1444C289.789 53.8583 287.821 54.9152 286.051 54.6253C284.281 54.3354 282.826 52.8815 282.288 51.1748C281.802 49.4316 282.001 47.569 282.845 45.9672C283.31 45.007 283.96 44.1478 284.758 43.4386C285.556 42.7294 286.487 42.1842 287.496 41.8342C288.512 41.4985 289.593 41.4112 290.649 41.5796C291.706 41.7479 292.706 42.167 293.566 42.8016C293.658 42.4166 293.85 42.0628 294.125 41.7768C294.399 41.4908 294.744 41.2828 295.126 41.1743C295.894 40.9678 296.705 40.9798 297.467 41.2088C299.662 41.8328 301.564 43.2132 302.835 45.1044C304.09 46.9898 304.92 49.1242 305.268 51.3604C305.867 54.7139 305.646 58.3784 303.758 61.2167C301.87 64.055 298.007 65.7309 294.873 64.3778C294.677 63.3813 295.14 62.3779 295.676 61.5144C296.211 60.6509 296.846 59.8097 297.052 58.8153C297.258 57.8209 296.863 56.6045 295.899 56.2793C295.076 56.0018 294.199 56.4513 293.332 56.5056C292.84 56.5364 292.349 56.4376 291.907 56.219C291.465 56.0005 291.089 55.6699 290.815 55.2604C290.542 54.8509 290.381 54.3769 290.35 53.886C290.318 53.3951 290.416 52.9045 290.635 52.4635L290.303 52.1444Z" fill="#2F2E41"/>
        <g filter="url(#filter3_d_1_3)">
            <rect x="210" y="190" width="153" height="1" fill="white"/>
        </g>
        <rect x="18.5" y="28.5" width="35" height="36" rx="2.5" fill="white" stroke="black"/>
        <rect x="151.5" y="22.5" width="21" height="21" rx="2.5" fill="white" stroke="black"/>
        <path d="M82 58H106.5M101.5 47L113.452 56.3905C114.485 57.2027 114.468 58.7743 113.416 59.5631L101.5 68.5" stroke="black" stroke-linecap="round"/>
        <path d="M206 58H230.5M225.5 47L238.476 57.1952C238.993 57.6013 238.984 58.3872 238.458 58.7816L225.5 68.5" stroke="black" stroke-width="2" stroke-linecap="round" stroke-linejoin="round"/>
        <rect x="18.5" y="77.5" width="35" height="9" rx="4.5" stroke="black"/>
        <rect x="143.5" y="53.5" width="35" height="9" rx="4.5" stroke="black"/>
        <rect x="143.5" y="68.5" width="35" height="9" rx="4.5" stroke="black"/>
        <rect x="143.5" y="83.5" width="35" height="9" rx="4.5" stroke="black"/>
    </g>
    <defs>
        <filter id="filter0_d_1_3" x="-4" y="5" width="80" height="113" filterUnits="userSpaceOnUse" color-interpolation-filters="sRGB">
            <feFlood flood-opacity="0" result="BackgroundImageFix"/>
            <feColorMatrix in="SourceAlpha" type="matrix" values="0 0 0 0 0 0 0 0 0 0 0 0 0 0 0 0 0 0 127 0" result="hardAlpha"/>
            <feOffset dy="4"/>
            <feGaussianBlur stdDeviation="2"/>
            <feComposite in2="hardAlpha" operator="out"/>
            <feColorMatrix type="matrix" values="0 0 0 0 0 0 0 0 0 0 0 0 0 0 0 0 0 0 0.25 0"/>
            <feBlend mode="normal" in2="BackgroundImageFix" result="effect1_dropShadow_1_3"/>
            <feBlend mode="normal" in="SourceGraphic" in2="effect1_dropShadow_1_3" result="shape"/>
        </filter>
        <filter id="filter1_d_1_3" x="121" y="5" width="80" height="113" filterUnits="userSpaceOnUse" color-interpolation-filters="sRGB">
            <feFlood flood-opacity="0" result="BackgroundImageFix"/>
            <feColorMatrix in="SourceAlpha" type="matrix" values="0 0 0 0 0 0 0 0 0 0 0 0 0 0 0 0 0 0 127 0" result="hardAlpha"/>
            <feOffset dy="4"/>
            <feGaussianBlur stdDeviation="2"/>
            <feComposite in2="hardAlpha" operator="out"/>
            <feColorMatrix type="matrix" values="0 0 0 0 0 0 0 0 0 0 0 0 0 0 0 0 0 0 0.25 0"/>
            <feBlend mode="normal" in2="BackgroundImageFix" result="effect1_dropShadow_1_3"/>
            <feBlend mode="normal" in="SourceGraphic" in2="effect1_dropShadow_1_3" result="shape"/>
        </filter>
        <filter id="filter2_d_1_3" x="242.235" y="-0.476646" width="94.9688" height="121.864" filterUnits="userSpaceOnUse" color-interpolation-filters="sRGB">
            <feFlood flood-opacity="0" result="BackgroundImageFix"/>
            <feColorMatrix in="SourceAlpha" type="matrix" values="0 0 0 0 0 0 0 0 0 0 0 0 0 0 0 0 0 0 127 0" result="hardAlpha"/>
            <feOffset dy="4"/>
            <feGaussianBlur stdDeviation="2"/>
            <feComposite in2="hardAlpha" operator="out"/>
            <feColorMatrix type="matrix" values="0 0 0 0 0 0 0 0 0 0 0 0 0 0 0 0 0 0 0.25 0"/>
            <feBlend mode="normal" in2="BackgroundImageFix" result="effect1_dropShadow_1_3"/>
            <feBlend mode="normal" in="SourceGraphic" in2="effect1_dropShadow_1_3" result="shape"/>
        </filter>
        <filter id="filter3_d_1_3" x="201" y="185" width="171" height="19" filterUnits="userSpaceOnUse" color-interpolation-filters="sRGB">
            <feFlood flood-opacity="0" result="BackgroundImageFix"/>
            <feColorMatrix in="SourceAlpha" type="matrix" values="0 0 0 0 0 0 0 0 0 0 0 0 0 0 0 0 0 0 127 0" result="hardAlpha"/>
            <feMorphology radius="5" operator="dilate" in="SourceAlpha" result="effect1_dropShadow_1_3"/>
            <feOffset dy="4"/>
            <feGaussianBlur stdDeviation="2"/>
            <feComposite in2="hardAlpha" operator="out"/>
            <feColorMatrix type="matrix" values="0 0 0 0 0 0 0 0 0 0 0 0 0 0 0 0 0 0 0.25 0"/>
            <feBlend mode="normal" in2="BackgroundImageFix" result="effect1_dropShadow_1_3"/>
            <feBlend mode="normal" in="SourceGraphic" in2="effect1_dropShadow_1_3" result="shape"/>
        </filter>
        <linearGradient id="paint0_linear_1_3" x1="307.061" y1="153.053" x2="377" y2="153.053" gradientUnits="userSpaceOnUse">
            <stop stop-color="#E65C00"/>
            <stop offset="1" stop-color="#F9D423"/>
        </linearGradient>
        <linearGradient id="paint1_linear_1_3" x1="206.589" y1="171.338" x2="242.316" y2="171.338" gradientUnits="userSpaceOnUse">
            <stop stop-color="#E65C00"/>
            <stop offset="1" stop-color="#F9D423"/>
        </linearGradient>
        <linearGradient id="paint2_linear_1_3" x1="245.301" y1="63.3562" x2="317.301" y2="63.3562" gradientUnits="userSpaceOnUse">
            <stop stop-color="#FDFC47"/>
            <stop offset="1" stop-color="#24FE41"/>
        </linearGradient>
        <clipPath id="clip0_1_3">
            <rect width="377" height="191" fill="white"/>
        </clipPath>
    </defs>
</svg>
