<svg width="31" height="31" viewBox="0 0 31 31" fill="none" xmlns="http://www.w3.org/2000/svg">
<path d="M15.5 0C6.93957 0 0 6.93959 0 15.5C0 24.0604 6.93957 31 15.5 31C24.0604 31 31 24.0604 31 15.5C31 6.93959 24.0604 0 15.5 0ZM13.2857 4.42857H17.7143V13.2857L16.6071 19.9286H14.3929L13.2857 13.2857V4.42857ZM15.5 22.1429C16.0873 22.1429 16.6505 22.3761 17.0657 22.7914C17.481 23.2067 17.7143 23.7699 17.7143 24.3571C17.7143 24.9444 17.481 25.5076 17.0657 25.9229C16.6505 26.3381 16.0873 26.5714 15.5 26.5714C14.9127 26.5714 14.3495 26.3381 13.9343 25.9229C13.519 25.5076 13.2857 24.9444 13.2857 24.3571C13.2857 23.7699 13.519 23.2067 13.9343 22.7914C14.3495 22.3761 14.9127 22.1429 15.5 22.1429Z" fill="black"/>
</svg>
